<?xml version="1.0" encoding="utf-8"?>
<!-- Generator: Adobe Illustrator 21.0.0, SVG Export Plug-In . SVG Version: 6.00 Build 0)  -->
<svg version="1.1" id="Layer_1" xmlns="http://www.w3.org/2000/svg" xmlns:xlink="http://www.w3.org/1999/xlink" x="0px" y="0px"
	 viewBox="0 0 258.3 110" style="enable-background:new 0 0 258.3 110;" xml:space="preserve">
<style type="text/css">
	.st0{enable-background:new    ;}
	.st1{fill:#3C4858;}
	.st2{fill:#00CECB;}
</style>
<title>Asset 6MAP</title>
<g id="Layer_2">
	<g id="Layer_1-2">
		<g class="st0">
			<path class="st1" d="M10.8,22.9h4.5v62.2h-4.5V22.9z"/>
		</g>
		<g class="st0">
			<path class="st1" d="M77.8,28.5c4.4,3.7,6.7,8.8,6.7,15.4c0,6.5-2.2,11.6-6.7,15.3c-4.4,3.7-10.6,5.6-18.4,5.6H41.6v20.4h-4.5
				V22.9h22.3C67.2,22.9,73.3,24.8,77.8,28.5z M74.6,56.3c3.5-2.9,5.2-7.1,5.2-12.4c0-5.4-1.7-9.6-5.2-12.5C71.1,28.5,66,27,59.4,27
				H41.6v33.7h17.8C66,60.7,71.1,59.2,74.6,56.3z"/>
		</g>
		<g class="st0">
			<path class="st1" d="M135.6,38.7l-21,46.4h-4.5L89.2,38.7h4.7l18.5,41.5l18.7-41.5H135.6z"/>
		</g>
		<path class="st2" d="M192.7,41.9l0.2-0.2c6.5-6.5,17-6.5,23.5,0l0.2,0.2c6.5,6.5,6.5,17,0,23.5l-0.2,0.2c-6.5,6.5-17,6.5-23.5,0
			l-0.2-0.2C186.3,58.9,186.3,48.4,192.7,41.9z"/>
		<path class="st2" d="M169.1,71.5l0.2-0.2c4.9-4.9,12.7-4.9,17.6,0l0.2,0.2c4.9,4.9,4.9,12.7,0,17.6l-0.2,0.2
			c-4.9,4.9-12.7,4.9-17.6,0l-0.2-0.2C164.2,84.2,164.2,76.3,169.1,71.5z"/>
		<path class="st2" d="M151.2,95.7l0.1-0.1c3.2-3.2,8.5-3.2,11.7,0l0.1,0.1c3.2,3.2,3.2,8.5,0,11.7l-0.1,0.1
			c-3.2,3.2-8.5,3.2-11.7,0l-0.1-0.1C147.9,104.2,147.9,99,151.2,95.7z"/>
		<path class="st2" d="M222.3,6.4l0.3-0.3c8.1-8.1,21.2-8.1,29.3,0l0.3,0.3c8.1,8.1,8.1,21.2,0,29.3l-0.3,0.3
			c-8.1,8.1-21.2,8.1-29.3,0l-0.3-0.3C214.2,27.6,214.2,14.5,222.3,6.4z"/>
		<path class="st2" d="M222.4,71.5l0.2-0.2c4.9-4.9,12.7-4.9,17.6,0l0.2,0.2c4.9,4.9,4.9,12.7,0,17.6l-0.2,0.2
			c-4.9,4.9-12.7,4.9-17.6,0l-0.2-0.2C217.5,84.2,217.5,76.3,222.4,71.5z"/>
		<path class="st2" d="M169.1,18.2l0.2-0.2c4.9-4.9,12.7-4.9,17.6,0l0.2,0.2c4.9,4.9,4.9,12.7,0,17.6l-0.2,0.2
			c-4.9,4.9-12.7,4.9-17.6,0l-0.2-0.2C164.2,30.9,164.2,23,169.1,18.2z"/>
	</g>
</g>
</svg>
