<?xml version="1.0" encoding="UTF-8" standalone="no"?>
<!DOCTYPE svg PUBLIC "-//W3C//DTD SVG 1.1//EN" "http://www.w3.org/Graphics/SVG/1.1/DTD/svg11.dtd">
<svg width="100%" height="100%" viewBox="0 0 744 197" version="1.1" xmlns="http://www.w3.org/2000/svg" xmlns:xlink="http://www.w3.org/1999/xlink" xml:space="preserve" xmlns:serif="http://www.serif.com/" style="fill-rule:evenodd;clip-rule:evenodd;stroke-linejoin:round;stroke-miterlimit:2;">
    <g transform="matrix(1,0,0,1,-308.634,-441.598)">
        <g id="favicon.svg" transform="matrix(1.78912,0,0,1.78912,406.651,540)">
            <g transform="matrix(1,0,0,1,-54.785,-55)">
                <clipPath id="_clip1">
                    <rect x="0" y="0" width="109.57" height="110"/>
                </clipPath>
                <g clip-path="url(#_clip1)">
                    <g id="Layer_2">
                        <g id="Layer_1-2">
                            <g transform="matrix(0.707107,-0.707107,0.707107,0.707107,-21.52,55.27)">
                                <path d="M72.72,53.44L72.72,53.77C72.72,62.926 65.286,70.36 56.13,70.36L55.8,70.36C46.644,70.36 39.21,62.926 39.21,53.77L39.21,53.44C39.21,44.284 46.644,36.85 55.8,36.85L56.13,36.85C65.286,36.85 72.72,44.284 72.72,53.44Z" style="fill:rgb(0,197,194);"/>
                            </g>
                            <g transform="matrix(0.707107,-0.707107,0.707107,0.707107,-48.17,44.23)">
                                <path d="M41.87,80.14L41.87,80.39C41.87,87.256 36.296,92.83 29.43,92.83L29.18,92.83C22.314,92.83 16.74,87.256 16.74,80.39L16.74,80.14C16.74,73.274 22.314,67.7 29.18,67.7L29.43,67.7C36.296,67.7 41.87,73.274 41.87,80.14Z" style="fill:rgb(0,197,194);"/>
                            </g>
                            <g transform="matrix(0.707107,-0.707107,0.707107,0.707107,-69.37,35.7)">
                                <path d="M16.78,101.5L16.78,101.67C16.78,106.245 13.065,109.96 8.49,109.96L8.32,109.96C3.745,109.96 0.03,106.245 0.03,101.67L0.03,101.5C0.03,96.925 3.745,93.21 8.32,93.21L8.49,93.21C13.065,93.21 16.78,96.925 16.78,101.5Z" style="fill:rgb(0,197,194);"/>
                            </g>
                            <g transform="matrix(0.707107,-0.707107,0.707107,0.707107,11.06,68.77)">
                                <path d="M109.48,20.83L109.48,21.23C109.48,32.677 100.187,41.97 88.74,41.97L88.34,41.97C76.893,41.97 67.6,32.677 67.6,21.23L67.6,20.83C67.6,9.383 76.893,0.09 88.34,0.09L88.74,0.09C100.187,0.09 109.48,9.383 109.48,20.83Z" style="fill:rgb(0,197,194);"/>
                            </g>
                            <g transform="matrix(0.707107,-0.707107,0.707107,0.707107,-32.56,81.93)">
                                <path d="M95.18,80.14L95.18,80.39C95.18,87.256 89.606,92.83 82.74,92.83L82.49,92.83C75.624,92.83 70.05,87.256 70.05,80.39L70.05,80.14C70.05,73.274 75.624,67.7 82.49,67.7L82.74,67.7C89.606,67.7 95.18,73.274 95.18,80.14Z" style="fill:rgb(0,197,194);"/>
                            </g>
                            <g transform="matrix(0.707107,-0.707107,0.707107,0.707107,-10.47,28.62)">
                                <path d="M41.87,26.83L41.87,27.08C41.87,33.946 36.296,39.52 29.43,39.52L29.18,39.52C22.314,39.52 16.74,33.946 16.74,27.08L16.74,26.83C16.74,19.964 22.314,14.39 29.18,14.39L29.43,14.39C36.296,14.39 41.87,19.964 41.87,26.83Z" style="fill:rgb(0,197,194);"/>
                            </g>
                        </g>
                    </g>
                </g>
            </g>
        </g>
        <g transform="matrix(1,0,0,1,-155.426,46.9047)">
            <g transform="matrix(36,0,0,36,717.931,544.297)">
                <rect x="0.08" y="-0.7" width="0.084" height="0.7" style="fill:rgb(33,37,41);fill-rule:nonzero;"/>
            </g>
            <g transform="matrix(36,0,0,36,726.715,544.297)">
                <path d="M0.083,-0L0.083,-0.489L0.16,-0.489L0.16,-0.406L0.174,-0.406C0.185,-0.43 0.203,-0.451 0.229,-0.47C0.254,-0.489 0.292,-0.498 0.342,-0.498C0.378,-0.498 0.411,-0.491 0.44,-0.475C0.47,-0.459 0.493,-0.437 0.51,-0.407C0.527,-0.377 0.536,-0.34 0.536,-0.296L0.536,-0L0.457,-0L0.457,-0.29C0.457,-0.339 0.445,-0.374 0.42,-0.396C0.396,-0.418 0.363,-0.429 0.322,-0.429C0.275,-0.429 0.237,-0.414 0.207,-0.383C0.177,-0.352 0.162,-0.306 0.162,-0.246L0.162,-0L0.083,-0Z" style="fill:rgb(33,37,41);fill-rule:nonzero;"/>
            </g>
            <g transform="matrix(36,0,0,36,748.279,544.297)">
                <path d="M0.179,-0L0.179,-0.42L0.029,-0.42L0.029,-0.489L0.179,-0.489L0.179,-0.614C0.179,-0.64 0.187,-0.662 0.202,-0.677C0.217,-0.692 0.238,-0.7 0.266,-0.7L0.389,-0.7L0.389,-0.632L0.288,-0.632C0.268,-0.632 0.258,-0.622 0.258,-0.602L0.258,-0.489L0.412,-0.489L0.412,-0.42L0.258,-0.42L0.258,-0L0.179,-0Z" style="fill:rgb(33,37,41);fill-rule:nonzero;"/>
            </g>
            <g transform="matrix(36,0,0,36,763.219,544.297)">
                <path d="M0.309,0.014C0.26,0.014 0.216,0.004 0.178,-0.017C0.141,-0.038 0.111,-0.067 0.09,-0.105C0.069,-0.143 0.059,-0.187 0.059,-0.238L0.059,-0.251C0.059,-0.302 0.069,-0.346 0.09,-0.384C0.111,-0.422 0.141,-0.451 0.178,-0.472C0.216,-0.493 0.26,-0.503 0.309,-0.503C0.358,-0.503 0.402,-0.493 0.439,-0.472C0.477,-0.451 0.506,-0.422 0.527,-0.384C0.548,-0.346 0.559,-0.302 0.559,-0.251L0.559,-0.238C0.559,-0.187 0.548,-0.143 0.527,-0.105C0.506,-0.067 0.477,-0.038 0.439,-0.017C0.402,0.004 0.358,0.014 0.309,0.014ZM0.309,-0.057C0.361,-0.057 0.402,-0.073 0.433,-0.106C0.464,-0.139 0.48,-0.184 0.48,-0.24L0.48,-0.249C0.48,-0.305 0.464,-0.349 0.433,-0.383C0.402,-0.416 0.361,-0.432 0.309,-0.432C0.257,-0.432 0.216,-0.416 0.185,-0.383C0.154,-0.349 0.138,-0.305 0.138,-0.249L0.138,-0.24C0.138,-0.184 0.154,-0.139 0.185,-0.106C0.216,-0.073 0.257,-0.057 0.309,-0.057Z" style="fill:rgb(33,37,41);fill-rule:nonzero;"/>
            </g>
            <g transform="matrix(36,0,0,36,785.467,544.297)">
                <path d="M0.083,-0L0.083,-0.489L0.16,-0.489L0.16,-0.429L0.174,-0.429C0.182,-0.451 0.196,-0.466 0.214,-0.476C0.232,-0.486 0.256,-0.491 0.285,-0.491L0.343,-0.491L0.343,-0.419L0.28,-0.419C0.244,-0.419 0.216,-0.409 0.194,-0.389C0.173,-0.37 0.162,-0.339 0.162,-0.298L0.162,-0L0.083,-0Z" style="fill:rgb(33,37,41);fill-rule:nonzero;"/>
            </g>
            <g transform="matrix(36,0,0,36,799.039,544.297)">
                <path d="M0.083,-0L0.083,-0.489L0.16,-0.489L0.16,-0.428L0.174,-0.428C0.183,-0.445 0.199,-0.462 0.22,-0.476C0.242,-0.491 0.272,-0.498 0.31,-0.498C0.348,-0.498 0.379,-0.49 0.402,-0.473C0.426,-0.456 0.443,-0.436 0.454,-0.412L0.468,-0.412C0.479,-0.436 0.496,-0.456 0.519,-0.473C0.542,-0.49 0.575,-0.498 0.616,-0.498C0.649,-0.498 0.678,-0.492 0.702,-0.478C0.727,-0.465 0.747,-0.445 0.761,-0.421C0.775,-0.396 0.782,-0.366 0.782,-0.331L0.782,-0L0.703,-0L0.703,-0.324C0.703,-0.357 0.694,-0.382 0.675,-0.401C0.656,-0.42 0.629,-0.43 0.595,-0.43C0.559,-0.43 0.53,-0.418 0.507,-0.395C0.484,-0.372 0.472,-0.338 0.472,-0.294L0.472,-0L0.393,-0L0.393,-0.324C0.393,-0.357 0.384,-0.382 0.365,-0.401C0.346,-0.42 0.319,-0.43 0.285,-0.43C0.249,-0.43 0.219,-0.418 0.196,-0.395C0.173,-0.372 0.162,-0.338 0.162,-0.294L0.162,-0L0.083,-0Z" style="fill:rgb(33,37,41);fill-rule:nonzero;"/>
            </g>
            <g transform="matrix(36,0,0,36,829.999,544.297)">
                <path d="M0.233,0.014C0.199,0.014 0.168,0.008 0.14,-0.004C0.112,-0.016 0.09,-0.033 0.074,-0.056C0.058,-0.079 0.05,-0.107 0.05,-0.139C0.05,-0.172 0.058,-0.2 0.074,-0.222C0.09,-0.243 0.112,-0.26 0.14,-0.271C0.168,-0.282 0.199,-0.287 0.234,-0.287L0.399,-0.287L0.399,-0.323C0.399,-0.358 0.389,-0.385 0.369,-0.405C0.349,-0.425 0.318,-0.435 0.278,-0.435C0.239,-0.435 0.208,-0.425 0.186,-0.406C0.164,-0.387 0.149,-0.362 0.141,-0.33L0.067,-0.354C0.075,-0.381 0.087,-0.406 0.105,-0.429C0.122,-0.451 0.145,-0.469 0.174,-0.483C0.203,-0.496 0.238,-0.503 0.279,-0.503C0.341,-0.503 0.39,-0.487 0.425,-0.455C0.46,-0.422 0.477,-0.377 0.477,-0.318L0.477,-0.097C0.477,-0.077 0.487,-0.067 0.505,-0.067L0.55,-0.067L0.55,-0L0.481,-0C0.459,-0 0.441,-0.006 0.428,-0.018C0.415,-0.031 0.408,-0.047 0.408,-0.068L0.408,-0.073L0.396,-0.073C0.389,-0.061 0.379,-0.047 0.367,-0.034C0.354,-0.02 0.337,-0.009 0.316,0C0.295,0.009 0.267,0.014 0.233,0.014ZM0.242,-0.054C0.289,-0.054 0.327,-0.068 0.356,-0.095C0.385,-0.123 0.399,-0.162 0.399,-0.212L0.399,-0.223L0.237,-0.223C0.205,-0.223 0.18,-0.216 0.16,-0.203C0.139,-0.189 0.129,-0.169 0.129,-0.141C0.129,-0.114 0.14,-0.092 0.161,-0.077C0.181,-0.062 0.209,-0.054 0.242,-0.054Z" style="fill:rgb(33,37,41);fill-rule:nonzero;"/>
            </g>
            <g transform="matrix(36,0,0,36,849.619,544.297)">
                <path d="M0.263,-0C0.235,-0 0.213,-0.008 0.198,-0.023C0.183,-0.038 0.176,-0.06 0.176,-0.086L0.176,-0.42L0.029,-0.42L0.029,-0.489L0.176,-0.489L0.176,-0.663L0.255,-0.663L0.255,-0.489L0.415,-0.489L0.415,-0.42L0.255,-0.42L0.255,-0.099C0.255,-0.079 0.265,-0.069 0.284,-0.069L0.393,-0.069L0.393,-0L0.263,-0Z" style="fill:rgb(33,37,41);fill-rule:nonzero;"/>
            </g>
            <g transform="matrix(36,0,0,36,866.179,544.297)">
                <path d="M0.083,-0L0.083,-0.489L0.162,-0.489L0.162,-0L0.083,-0ZM0.123,-0.565C0.106,-0.565 0.091,-0.571 0.08,-0.582C0.068,-0.594 0.062,-0.608 0.062,-0.625C0.062,-0.643 0.068,-0.658 0.08,-0.669C0.091,-0.68 0.106,-0.686 0.123,-0.686C0.14,-0.686 0.155,-0.68 0.166,-0.669C0.177,-0.658 0.183,-0.643 0.183,-0.625C0.183,-0.608 0.177,-0.594 0.166,-0.582C0.155,-0.571 0.14,-0.565 0.123,-0.565Z" style="fill:rgb(33,37,41);fill-rule:nonzero;"/>
            </g>
            <g transform="matrix(36,0,0,36,874.999,544.297)">
                <path d="M0.309,0.014C0.26,0.014 0.216,0.004 0.178,-0.017C0.141,-0.038 0.111,-0.067 0.09,-0.105C0.069,-0.143 0.059,-0.187 0.059,-0.238L0.059,-0.251C0.059,-0.302 0.069,-0.346 0.09,-0.384C0.111,-0.422 0.141,-0.451 0.178,-0.472C0.216,-0.493 0.26,-0.503 0.309,-0.503C0.358,-0.503 0.402,-0.493 0.439,-0.472C0.477,-0.451 0.506,-0.422 0.527,-0.384C0.548,-0.346 0.559,-0.302 0.559,-0.251L0.559,-0.238C0.559,-0.187 0.548,-0.143 0.527,-0.105C0.506,-0.067 0.477,-0.038 0.439,-0.017C0.402,0.004 0.358,0.014 0.309,0.014ZM0.309,-0.057C0.361,-0.057 0.402,-0.073 0.433,-0.106C0.464,-0.139 0.48,-0.184 0.48,-0.24L0.48,-0.249C0.48,-0.305 0.464,-0.349 0.433,-0.383C0.402,-0.416 0.361,-0.432 0.309,-0.432C0.257,-0.432 0.216,-0.416 0.185,-0.383C0.154,-0.349 0.138,-0.305 0.138,-0.249L0.138,-0.24C0.138,-0.184 0.154,-0.139 0.185,-0.106C0.216,-0.073 0.257,-0.057 0.309,-0.057Z" style="fill:rgb(33,37,41);fill-rule:nonzero;"/>
            </g>
            <g transform="matrix(36,0,0,36,897.247,544.297)">
                <path d="M0.083,-0L0.083,-0.489L0.16,-0.489L0.16,-0.406L0.174,-0.406C0.185,-0.43 0.203,-0.451 0.229,-0.47C0.254,-0.489 0.292,-0.498 0.342,-0.498C0.378,-0.498 0.411,-0.491 0.44,-0.475C0.47,-0.459 0.493,-0.437 0.51,-0.407C0.527,-0.377 0.536,-0.34 0.536,-0.296L0.536,-0L0.457,-0L0.457,-0.29C0.457,-0.339 0.445,-0.374 0.42,-0.396C0.396,-0.418 0.363,-0.429 0.322,-0.429C0.275,-0.429 0.237,-0.414 0.207,-0.383C0.177,-0.352 0.162,-0.306 0.162,-0.246L0.162,-0L0.083,-0Z" style="fill:rgb(33,37,41);fill-rule:nonzero;"/>
            </g>
            <g transform="matrix(36,0,0,36,919.315,544.297)">
                <path d="M0.28,0.014C0.219,0.014 0.168,0 0.127,-0.028C0.085,-0.056 0.06,-0.1 0.051,-0.161L0.126,-0.178C0.131,-0.146 0.141,-0.121 0.156,-0.103C0.171,-0.084 0.189,-0.071 0.21,-0.064C0.232,-0.056 0.255,-0.052 0.28,-0.052C0.316,-0.052 0.346,-0.059 0.367,-0.074C0.388,-0.088 0.399,-0.108 0.399,-0.133C0.399,-0.158 0.389,-0.176 0.369,-0.187C0.348,-0.197 0.321,-0.205 0.285,-0.212L0.244,-0.219C0.212,-0.224 0.184,-0.233 0.158,-0.244C0.132,-0.255 0.111,-0.271 0.096,-0.29C0.081,-0.309 0.073,-0.333 0.073,-0.363C0.073,-0.407 0.09,-0.441 0.124,-0.466C0.158,-0.491 0.203,-0.503 0.259,-0.503C0.314,-0.503 0.359,-0.49 0.394,-0.466C0.428,-0.441 0.45,-0.406 0.46,-0.36L0.386,-0.341C0.38,-0.376 0.365,-0.401 0.343,-0.415C0.32,-0.43 0.292,-0.437 0.259,-0.437C0.226,-0.437 0.2,-0.431 0.18,-0.418C0.161,-0.406 0.151,-0.388 0.151,-0.364C0.151,-0.341 0.161,-0.324 0.179,-0.313C0.197,-0.302 0.221,-0.293 0.252,-0.288L0.293,-0.281C0.328,-0.275 0.359,-0.267 0.387,-0.256C0.414,-0.246 0.436,-0.231 0.453,-0.212C0.469,-0.193 0.477,-0.167 0.477,-0.136C0.477,-0.088 0.459,-0.051 0.424,-0.025C0.388,0.001 0.34,0.014 0.28,0.014Z" style="fill:rgb(33,37,41);fill-rule:nonzero;"/>
            </g>
            <g transform="matrix(36,0,0,36,937.855,544.297)">
                <path d="M0.263,-0C0.235,-0 0.213,-0.008 0.198,-0.023C0.183,-0.038 0.176,-0.06 0.176,-0.086L0.176,-0.42L0.029,-0.42L0.029,-0.489L0.176,-0.489L0.176,-0.663L0.255,-0.663L0.255,-0.489L0.415,-0.489L0.415,-0.42L0.255,-0.42L0.255,-0.099C0.255,-0.079 0.265,-0.069 0.284,-0.069L0.393,-0.069L0.393,-0L0.263,-0Z" style="fill:rgb(33,37,41);fill-rule:nonzero;"/>
            </g>
            <g transform="matrix(36,0,0,36,953.767,544.297)">
                <path d="M0.307,0.014C0.258,0.014 0.214,0.003 0.177,-0.018C0.14,-0.039 0.111,-0.068 0.09,-0.106C0.069,-0.144 0.059,-0.188 0.059,-0.238L0.059,-0.25C0.059,-0.301 0.069,-0.345 0.09,-0.383C0.11,-0.421 0.139,-0.45 0.176,-0.471C0.212,-0.492 0.254,-0.503 0.302,-0.503C0.348,-0.503 0.389,-0.493 0.424,-0.473C0.459,-0.453 0.487,-0.425 0.507,-0.389C0.527,-0.352 0.537,-0.309 0.537,-0.26L0.537,-0.224L0.139,-0.224C0.14,-0.172 0.157,-0.13 0.189,-0.101C0.221,-0.071 0.261,-0.056 0.309,-0.056C0.351,-0.056 0.383,-0.066 0.406,-0.085C0.429,-0.104 0.446,-0.127 0.458,-0.154L0.526,-0.121C0.516,-0.1 0.503,-0.08 0.485,-0.059C0.467,-0.038 0.444,-0.021 0.416,-0.007C0.387,0.007 0.351,0.014 0.307,0.014ZM0.14,-0.289L0.457,-0.289C0.454,-0.334 0.439,-0.37 0.41,-0.395C0.382,-0.42 0.346,-0.433 0.302,-0.433C0.257,-0.433 0.221,-0.42 0.192,-0.395C0.164,-0.37 0.146,-0.334 0.14,-0.289Z" style="fill:rgb(33,37,41);fill-rule:nonzero;"/>
            </g>
            <g transform="matrix(36,0,0,36,975.079,544.297)">
                <path d="M0.308,0.014C0.26,0.014 0.218,0.004 0.18,-0.016C0.143,-0.037 0.113,-0.066 0.091,-0.104C0.07,-0.142 0.059,-0.187 0.059,-0.239L0.059,-0.25C0.059,-0.303 0.07,-0.348 0.091,-0.386C0.113,-0.423 0.143,-0.452 0.18,-0.473C0.218,-0.493 0.26,-0.503 0.308,-0.503C0.355,-0.503 0.395,-0.494 0.427,-0.477C0.46,-0.459 0.486,-0.436 0.505,-0.408C0.524,-0.379 0.537,-0.349 0.542,-0.316L0.465,-0.3C0.461,-0.324 0.454,-0.346 0.442,-0.366C0.429,-0.386 0.412,-0.402 0.39,-0.414C0.368,-0.426 0.341,-0.432 0.309,-0.432C0.276,-0.432 0.247,-0.425 0.222,-0.41C0.196,-0.395 0.175,-0.374 0.16,-0.347C0.145,-0.319 0.138,-0.287 0.138,-0.249L0.138,-0.24C0.138,-0.202 0.145,-0.17 0.16,-0.142C0.175,-0.115 0.196,-0.094 0.222,-0.079C0.247,-0.064 0.276,-0.057 0.309,-0.057C0.358,-0.057 0.395,-0.069 0.421,-0.095C0.446,-0.12 0.462,-0.152 0.468,-0.189L0.546,-0.172C0.539,-0.14 0.526,-0.109 0.506,-0.081C0.486,-0.052 0.46,-0.029 0.427,-0.012C0.395,0.005 0.355,0.014 0.308,0.014Z" style="fill:rgb(33,37,41);fill-rule:nonzero;"/>
            </g>
            <g transform="matrix(36,0,0,36,996.607,544.297)">
                <path d="M0.083,-0L0.083,-0.7L0.162,-0.7L0.162,-0.411L0.176,-0.411C0.183,-0.425 0.193,-0.439 0.207,-0.452C0.22,-0.466 0.238,-0.477 0.26,-0.485C0.281,-0.493 0.309,-0.498 0.342,-0.498C0.378,-0.498 0.411,-0.49 0.44,-0.474C0.47,-0.459 0.493,-0.436 0.51,-0.406C0.527,-0.376 0.536,-0.34 0.536,-0.296L0.536,-0L0.457,-0L0.457,-0.29C0.457,-0.339 0.445,-0.374 0.42,-0.396C0.396,-0.418 0.363,-0.429 0.322,-0.429C0.275,-0.429 0.237,-0.413 0.207,-0.383C0.177,-0.352 0.162,-0.306 0.162,-0.246L0.162,-0L0.083,-0Z" style="fill:rgb(33,37,41);fill-rule:nonzero;"/>
            </g>
            <g transform="matrix(36,0,0,36,1018.68,544.297)">
                <path d="M0.083,-0L0.083,-0.489L0.16,-0.489L0.16,-0.406L0.174,-0.406C0.185,-0.43 0.203,-0.451 0.229,-0.47C0.254,-0.489 0.292,-0.498 0.342,-0.498C0.378,-0.498 0.411,-0.491 0.44,-0.475C0.47,-0.459 0.493,-0.437 0.51,-0.407C0.527,-0.377 0.536,-0.34 0.536,-0.296L0.536,-0L0.457,-0L0.457,-0.29C0.457,-0.339 0.445,-0.374 0.42,-0.396C0.396,-0.418 0.363,-0.429 0.322,-0.429C0.275,-0.429 0.237,-0.414 0.207,-0.383C0.177,-0.352 0.162,-0.306 0.162,-0.246L0.162,-0L0.083,-0Z" style="fill:rgb(33,37,41);fill-rule:nonzero;"/>
            </g>
            <g transform="matrix(36,0,0,36,1040.74,544.297)">
                <path d="M0.309,0.014C0.26,0.014 0.216,0.004 0.178,-0.017C0.141,-0.038 0.111,-0.067 0.09,-0.105C0.069,-0.143 0.059,-0.187 0.059,-0.238L0.059,-0.251C0.059,-0.302 0.069,-0.346 0.09,-0.384C0.111,-0.422 0.141,-0.451 0.178,-0.472C0.216,-0.493 0.26,-0.503 0.309,-0.503C0.358,-0.503 0.402,-0.493 0.439,-0.472C0.477,-0.451 0.506,-0.422 0.527,-0.384C0.548,-0.346 0.559,-0.302 0.559,-0.251L0.559,-0.238C0.559,-0.187 0.548,-0.143 0.527,-0.105C0.506,-0.067 0.477,-0.038 0.439,-0.017C0.402,0.004 0.358,0.014 0.309,0.014ZM0.309,-0.057C0.361,-0.057 0.402,-0.073 0.433,-0.106C0.464,-0.139 0.48,-0.184 0.48,-0.24L0.48,-0.249C0.48,-0.305 0.464,-0.349 0.433,-0.383C0.402,-0.416 0.361,-0.432 0.309,-0.432C0.257,-0.432 0.216,-0.416 0.185,-0.383C0.154,-0.349 0.138,-0.305 0.138,-0.249L0.138,-0.24C0.138,-0.184 0.154,-0.139 0.185,-0.106C0.216,-0.073 0.257,-0.057 0.309,-0.057Z" style="fill:rgb(33,37,41);fill-rule:nonzero;"/>
            </g>
            <g transform="matrix(36,0,0,36,1062.99,544.297)">
                <rect x="0.083" y="-0.7" width="0.079" height="0.7" style="fill:rgb(33,37,41);fill-rule:nonzero;"/>
            </g>
            <g transform="matrix(36,0,0,36,1071.81,544.297)">
                <path d="M0.309,0.014C0.26,0.014 0.216,0.004 0.178,-0.017C0.141,-0.038 0.111,-0.067 0.09,-0.105C0.069,-0.143 0.059,-0.187 0.059,-0.238L0.059,-0.251C0.059,-0.302 0.069,-0.346 0.09,-0.384C0.111,-0.422 0.141,-0.451 0.178,-0.472C0.216,-0.493 0.26,-0.503 0.309,-0.503C0.358,-0.503 0.402,-0.493 0.439,-0.472C0.477,-0.451 0.506,-0.422 0.527,-0.384C0.548,-0.346 0.559,-0.302 0.559,-0.251L0.559,-0.238C0.559,-0.187 0.548,-0.143 0.527,-0.105C0.506,-0.067 0.477,-0.038 0.439,-0.017C0.402,0.004 0.358,0.014 0.309,0.014ZM0.309,-0.057C0.361,-0.057 0.402,-0.073 0.433,-0.106C0.464,-0.139 0.48,-0.184 0.48,-0.24L0.48,-0.249C0.48,-0.305 0.464,-0.349 0.433,-0.383C0.402,-0.416 0.361,-0.432 0.309,-0.432C0.257,-0.432 0.216,-0.416 0.185,-0.383C0.154,-0.349 0.138,-0.305 0.138,-0.249L0.138,-0.24C0.138,-0.184 0.154,-0.139 0.185,-0.106C0.216,-0.073 0.257,-0.057 0.309,-0.057Z" style="fill:rgb(33,37,41);fill-rule:nonzero;"/>
            </g>
            <g transform="matrix(36,0,0,36,1094.06,544.297)">
                <path d="M0.059,-0.242L0.059,-0.256C0.059,-0.307 0.069,-0.351 0.09,-0.388C0.111,-0.425 0.139,-0.453 0.174,-0.473C0.209,-0.493 0.248,-0.503 0.29,-0.503C0.341,-0.503 0.381,-0.493 0.409,-0.474C0.437,-0.454 0.457,-0.432 0.47,-0.408L0.484,-0.408L0.484,-0.489L0.559,-0.489L0.559,0.114C0.559,0.14 0.552,0.162 0.537,0.177C0.522,0.192 0.501,0.2 0.473,0.2L0.141,0.2L0.141,0.13L0.452,0.13C0.472,0.13 0.482,0.12 0.482,0.1L0.482,-0.086L0.468,-0.086C0.46,-0.072 0.449,-0.057 0.434,-0.043C0.419,-0.029 0.4,-0.018 0.377,-0.009C0.354,0 0.325,0.005 0.29,0.005C0.248,0.005 0.209,-0.005 0.174,-0.025C0.138,-0.045 0.11,-0.073 0.09,-0.11C0.069,-0.147 0.059,-0.191 0.059,-0.242ZM0.311,-0.065C0.361,-0.065 0.403,-0.081 0.434,-0.113C0.466,-0.145 0.482,-0.189 0.482,-0.245L0.482,-0.253C0.482,-0.31 0.466,-0.354 0.435,-0.386C0.403,-0.417 0.362,-0.433 0.311,-0.433C0.261,-0.433 0.22,-0.417 0.188,-0.386C0.155,-0.354 0.139,-0.31 0.139,-0.253L0.139,-0.245C0.139,-0.189 0.155,-0.145 0.188,-0.113C0.22,-0.081 0.261,-0.065 0.311,-0.065Z" style="fill:rgb(33,37,41);fill-rule:nonzero;"/>
            </g>
            <g transform="matrix(36,0,0,36,1117.17,544.297)">
                <path d="M0.083,-0L0.083,-0.489L0.162,-0.489L0.162,-0L0.083,-0ZM0.123,-0.565C0.106,-0.565 0.091,-0.571 0.08,-0.582C0.068,-0.594 0.062,-0.608 0.062,-0.625C0.062,-0.643 0.068,-0.658 0.08,-0.669C0.091,-0.68 0.106,-0.686 0.123,-0.686C0.14,-0.686 0.155,-0.68 0.166,-0.669C0.177,-0.658 0.183,-0.643 0.183,-0.625C0.183,-0.608 0.177,-0.594 0.166,-0.582C0.155,-0.571 0.14,-0.565 0.123,-0.565Z" style="fill:rgb(33,37,41);fill-rule:nonzero;"/>
            </g>
            <g transform="matrix(36,0,0,36,1125.99,544.297)">
                <path d="M0.28,0.014C0.219,0.014 0.168,0 0.127,-0.028C0.085,-0.056 0.06,-0.1 0.051,-0.161L0.126,-0.178C0.131,-0.146 0.141,-0.121 0.156,-0.103C0.171,-0.084 0.189,-0.071 0.21,-0.064C0.232,-0.056 0.255,-0.052 0.28,-0.052C0.316,-0.052 0.346,-0.059 0.367,-0.074C0.388,-0.088 0.399,-0.108 0.399,-0.133C0.399,-0.158 0.389,-0.176 0.369,-0.187C0.348,-0.197 0.321,-0.205 0.285,-0.212L0.244,-0.219C0.212,-0.224 0.184,-0.233 0.158,-0.244C0.132,-0.255 0.111,-0.271 0.096,-0.29C0.081,-0.309 0.073,-0.333 0.073,-0.363C0.073,-0.407 0.09,-0.441 0.124,-0.466C0.158,-0.491 0.203,-0.503 0.259,-0.503C0.314,-0.503 0.359,-0.49 0.394,-0.466C0.428,-0.441 0.45,-0.406 0.46,-0.36L0.386,-0.341C0.38,-0.376 0.365,-0.401 0.343,-0.415C0.32,-0.43 0.292,-0.437 0.259,-0.437C0.226,-0.437 0.2,-0.431 0.18,-0.418C0.161,-0.406 0.151,-0.388 0.151,-0.364C0.151,-0.341 0.161,-0.324 0.179,-0.313C0.197,-0.302 0.221,-0.293 0.252,-0.288L0.293,-0.281C0.328,-0.275 0.359,-0.267 0.387,-0.256C0.414,-0.246 0.436,-0.231 0.453,-0.212C0.469,-0.193 0.477,-0.167 0.477,-0.136C0.477,-0.088 0.459,-0.051 0.424,-0.025C0.388,0.001 0.34,0.014 0.28,0.014Z" style="fill:rgb(33,37,41);fill-rule:nonzero;"/>
            </g>
            <g transform="matrix(36,0,0,36,1144.96,544.297)">
                <path d="M0.308,0.014C0.26,0.014 0.218,0.004 0.18,-0.016C0.143,-0.037 0.113,-0.066 0.091,-0.104C0.07,-0.142 0.059,-0.187 0.059,-0.239L0.059,-0.25C0.059,-0.303 0.07,-0.348 0.091,-0.386C0.113,-0.423 0.143,-0.452 0.18,-0.473C0.218,-0.493 0.26,-0.503 0.308,-0.503C0.355,-0.503 0.395,-0.494 0.427,-0.477C0.46,-0.459 0.486,-0.436 0.505,-0.408C0.524,-0.379 0.537,-0.349 0.542,-0.316L0.465,-0.3C0.461,-0.324 0.454,-0.346 0.442,-0.366C0.429,-0.386 0.412,-0.402 0.39,-0.414C0.368,-0.426 0.341,-0.432 0.309,-0.432C0.276,-0.432 0.247,-0.425 0.222,-0.41C0.196,-0.395 0.175,-0.374 0.16,-0.347C0.145,-0.319 0.138,-0.287 0.138,-0.249L0.138,-0.24C0.138,-0.202 0.145,-0.17 0.16,-0.142C0.175,-0.115 0.196,-0.094 0.222,-0.079C0.247,-0.064 0.276,-0.057 0.309,-0.057C0.358,-0.057 0.395,-0.069 0.421,-0.095C0.446,-0.12 0.462,-0.152 0.468,-0.189L0.546,-0.172C0.539,-0.14 0.526,-0.109 0.506,-0.081C0.486,-0.052 0.46,-0.029 0.427,-0.012C0.395,0.005 0.355,0.014 0.308,0.014Z" style="fill:rgb(33,37,41);fill-rule:nonzero;"/>
            </g>
            <g transform="matrix(36,0,0,36,1166.49,544.297)">
                <path d="M0.083,-0L0.083,-0.7L0.162,-0.7L0.162,-0.411L0.176,-0.411C0.183,-0.425 0.193,-0.439 0.207,-0.452C0.22,-0.466 0.238,-0.477 0.26,-0.485C0.281,-0.493 0.309,-0.498 0.342,-0.498C0.378,-0.498 0.411,-0.49 0.44,-0.474C0.47,-0.459 0.493,-0.436 0.51,-0.406C0.527,-0.376 0.536,-0.34 0.536,-0.296L0.536,-0L0.457,-0L0.457,-0.29C0.457,-0.339 0.445,-0.374 0.42,-0.396C0.396,-0.418 0.363,-0.429 0.322,-0.429C0.275,-0.429 0.237,-0.413 0.207,-0.383C0.177,-0.352 0.162,-0.306 0.162,-0.246L0.162,-0L0.083,-0Z" style="fill:rgb(33,37,41);fill-rule:nonzero;"/>
            </g>
            <g transform="matrix(36,0,0,36,1188.56,544.297)">
                <path d="M0.307,0.014C0.258,0.014 0.214,0.003 0.177,-0.018C0.14,-0.039 0.111,-0.068 0.09,-0.106C0.069,-0.144 0.059,-0.188 0.059,-0.238L0.059,-0.25C0.059,-0.301 0.069,-0.345 0.09,-0.383C0.11,-0.421 0.139,-0.45 0.176,-0.471C0.212,-0.492 0.254,-0.503 0.302,-0.503C0.348,-0.503 0.389,-0.493 0.424,-0.473C0.459,-0.453 0.487,-0.425 0.507,-0.389C0.527,-0.352 0.537,-0.309 0.537,-0.26L0.537,-0.224L0.139,-0.224C0.14,-0.172 0.157,-0.13 0.189,-0.101C0.221,-0.071 0.261,-0.056 0.309,-0.056C0.351,-0.056 0.383,-0.066 0.406,-0.085C0.429,-0.104 0.446,-0.127 0.458,-0.154L0.526,-0.121C0.516,-0.1 0.503,-0.08 0.485,-0.059C0.467,-0.038 0.444,-0.021 0.416,-0.007C0.387,0.007 0.351,0.014 0.307,0.014ZM0.14,-0.289L0.457,-0.289C0.454,-0.334 0.439,-0.37 0.41,-0.395C0.382,-0.42 0.346,-0.433 0.302,-0.433C0.257,-0.433 0.221,-0.42 0.192,-0.395C0.164,-0.37 0.146,-0.334 0.14,-0.289Z" style="fill:rgb(33,37,41);fill-rule:nonzero;"/>
            </g>
            <g transform="matrix(36,0,0,36,1209.87,544.297)">
            </g>
            <g transform="matrix(36,0,0,36,717.931,584.297)">
                <path d="M0.08,-0L0.08,-0.7L0.348,-0.7C0.39,-0.7 0.427,-0.692 0.461,-0.676C0.494,-0.659 0.52,-0.636 0.539,-0.606C0.558,-0.576 0.568,-0.54 0.568,-0.497L0.568,-0.484C0.568,-0.442 0.558,-0.406 0.539,-0.375C0.519,-0.345 0.492,-0.322 0.459,-0.306C0.426,-0.29 0.389,-0.282 0.348,-0.282L0.164,-0.282L0.164,-0L0.08,-0ZM0.164,-0.358L0.339,-0.358C0.383,-0.358 0.419,-0.369 0.445,-0.391C0.471,-0.414 0.484,-0.445 0.484,-0.486L0.484,-0.496C0.484,-0.537 0.471,-0.568 0.446,-0.591C0.42,-0.613 0.384,-0.624 0.339,-0.624L0.164,-0.624L0.164,-0.358Z" style="fill:rgb(33,37,41);fill-rule:nonzero;"/>
            </g>
            <g transform="matrix(36,0,0,36,739.567,584.297)">
                <path d="M0.083,-0L0.083,-0.489L0.16,-0.489L0.16,-0.429L0.174,-0.429C0.182,-0.451 0.196,-0.466 0.214,-0.476C0.232,-0.486 0.256,-0.491 0.285,-0.491L0.343,-0.491L0.343,-0.419L0.28,-0.419C0.244,-0.419 0.216,-0.409 0.194,-0.389C0.173,-0.37 0.162,-0.339 0.162,-0.298L0.162,-0L0.083,-0Z" style="fill:rgb(33,37,41);fill-rule:nonzero;"/>
            </g>
            <g transform="matrix(36,0,0,36,752.491,584.297)">
                <path d="M0.309,0.014C0.26,0.014 0.216,0.004 0.178,-0.017C0.141,-0.038 0.111,-0.067 0.09,-0.105C0.069,-0.143 0.059,-0.187 0.059,-0.238L0.059,-0.251C0.059,-0.302 0.069,-0.346 0.09,-0.384C0.111,-0.422 0.141,-0.451 0.178,-0.472C0.216,-0.493 0.26,-0.503 0.309,-0.503C0.358,-0.503 0.402,-0.493 0.439,-0.472C0.477,-0.451 0.506,-0.422 0.527,-0.384C0.548,-0.346 0.559,-0.302 0.559,-0.251L0.559,-0.238C0.559,-0.187 0.548,-0.143 0.527,-0.105C0.506,-0.067 0.477,-0.038 0.439,-0.017C0.402,0.004 0.358,0.014 0.309,0.014ZM0.309,-0.057C0.361,-0.057 0.402,-0.073 0.433,-0.106C0.464,-0.139 0.48,-0.184 0.48,-0.24L0.48,-0.249C0.48,-0.305 0.464,-0.349 0.433,-0.383C0.402,-0.416 0.361,-0.432 0.309,-0.432C0.257,-0.432 0.216,-0.416 0.185,-0.383C0.154,-0.349 0.138,-0.305 0.138,-0.249L0.138,-0.24C0.138,-0.184 0.154,-0.139 0.185,-0.106C0.216,-0.073 0.257,-0.057 0.309,-0.057Z" style="fill:rgb(33,37,41);fill-rule:nonzero;"/>
            </g>
            <g transform="matrix(36,0,0,36,774.739,584.297)">
                <path d="M-0.013,0.2L-0.013,0.13L0.055,0.13C0.075,0.13 0.085,0.12 0.085,0.1L0.085,-0.489L0.164,-0.489L0.164,0.114C0.164,0.14 0.156,0.162 0.141,0.177C0.126,0.192 0.105,0.2 0.077,0.2L-0.013,0.2ZM0.125,-0.565C0.108,-0.565 0.093,-0.571 0.082,-0.582C0.07,-0.594 0.064,-0.608 0.064,-0.625C0.064,-0.643 0.07,-0.658 0.082,-0.669C0.093,-0.68 0.108,-0.686 0.125,-0.686C0.142,-0.686 0.157,-0.68 0.168,-0.669C0.179,-0.658 0.185,-0.643 0.185,-0.625C0.185,-0.608 0.179,-0.594 0.168,-0.582C0.157,-0.571 0.142,-0.565 0.125,-0.565Z" style="fill:rgb(33,37,41);fill-rule:nonzero;"/>
            </g>
            <g transform="matrix(36,0,0,36,783.631,584.297)">
                <path d="M0.307,0.014C0.258,0.014 0.214,0.003 0.177,-0.018C0.14,-0.039 0.111,-0.068 0.09,-0.106C0.069,-0.144 0.059,-0.188 0.059,-0.238L0.059,-0.25C0.059,-0.301 0.069,-0.345 0.09,-0.383C0.11,-0.421 0.139,-0.45 0.176,-0.471C0.212,-0.492 0.254,-0.503 0.302,-0.503C0.348,-0.503 0.389,-0.493 0.424,-0.473C0.459,-0.453 0.487,-0.425 0.507,-0.389C0.527,-0.352 0.537,-0.309 0.537,-0.26L0.537,-0.224L0.139,-0.224C0.14,-0.172 0.157,-0.13 0.189,-0.101C0.221,-0.071 0.261,-0.056 0.309,-0.056C0.351,-0.056 0.383,-0.066 0.406,-0.085C0.429,-0.104 0.446,-0.127 0.458,-0.154L0.526,-0.121C0.516,-0.1 0.503,-0.08 0.485,-0.059C0.467,-0.038 0.444,-0.021 0.416,-0.007C0.387,0.007 0.351,0.014 0.307,0.014ZM0.14,-0.289L0.457,-0.289C0.454,-0.334 0.439,-0.37 0.41,-0.395C0.382,-0.42 0.346,-0.433 0.302,-0.433C0.257,-0.433 0.221,-0.42 0.192,-0.395C0.164,-0.37 0.146,-0.334 0.14,-0.289Z" style="fill:rgb(33,37,41);fill-rule:nonzero;"/>
            </g>
            <g transform="matrix(36,0,0,36,804.943,584.297)">
                <path d="M0.083,-0L0.083,-0.7L0.162,-0.7L0.162,-0.288L0.176,-0.288L0.4,-0.489L0.51,-0.489L0.239,-0.251L0.518,-0L0.409,-0L0.176,-0.213L0.162,-0.213L0.162,-0L0.083,-0Z" style="fill:rgb(33,37,41);fill-rule:nonzero;"/>
            </g>
            <g transform="matrix(36,0,0,36,824.311,584.297)">
                <path d="M0.263,-0C0.235,-0 0.213,-0.008 0.198,-0.023C0.183,-0.038 0.176,-0.06 0.176,-0.086L0.176,-0.42L0.029,-0.42L0.029,-0.489L0.176,-0.489L0.176,-0.663L0.255,-0.663L0.255,-0.489L0.415,-0.489L0.415,-0.42L0.255,-0.42L0.255,-0.099C0.255,-0.079 0.265,-0.069 0.284,-0.069L0.393,-0.069L0.393,-0L0.263,-0Z" style="fill:rgb(33,37,41);fill-rule:nonzero;"/>
            </g>
            <g transform="matrix(36,0,0,36,840.223,584.297)">
                <path d="M0.059,-0.242L0.059,-0.256C0.059,-0.307 0.069,-0.351 0.09,-0.388C0.111,-0.425 0.139,-0.453 0.174,-0.473C0.209,-0.493 0.248,-0.503 0.29,-0.503C0.341,-0.503 0.381,-0.493 0.409,-0.474C0.437,-0.454 0.457,-0.432 0.47,-0.408L0.484,-0.408L0.484,-0.489L0.559,-0.489L0.559,0.114C0.559,0.14 0.552,0.162 0.537,0.177C0.522,0.192 0.501,0.2 0.473,0.2L0.141,0.2L0.141,0.13L0.452,0.13C0.472,0.13 0.482,0.12 0.482,0.1L0.482,-0.086L0.468,-0.086C0.46,-0.072 0.449,-0.057 0.434,-0.043C0.419,-0.029 0.4,-0.018 0.377,-0.009C0.354,0 0.325,0.005 0.29,0.005C0.248,0.005 0.209,-0.005 0.174,-0.025C0.138,-0.045 0.11,-0.073 0.09,-0.11C0.069,-0.147 0.059,-0.191 0.059,-0.242ZM0.311,-0.065C0.361,-0.065 0.403,-0.081 0.434,-0.113C0.466,-0.145 0.482,-0.189 0.482,-0.245L0.482,-0.253C0.482,-0.31 0.466,-0.354 0.435,-0.386C0.403,-0.417 0.362,-0.433 0.311,-0.433C0.261,-0.433 0.22,-0.417 0.188,-0.386C0.155,-0.354 0.139,-0.31 0.139,-0.253L0.139,-0.245C0.139,-0.189 0.155,-0.145 0.188,-0.113C0.22,-0.081 0.261,-0.065 0.311,-0.065Z" style="fill:rgb(33,37,41);fill-rule:nonzero;"/>
            </g>
            <g transform="matrix(36,0,0,36,863.335,584.297)">
                <path d="M0.307,0.014C0.258,0.014 0.214,0.003 0.177,-0.018C0.14,-0.039 0.111,-0.068 0.09,-0.106C0.069,-0.144 0.059,-0.188 0.059,-0.238L0.059,-0.25C0.059,-0.301 0.069,-0.345 0.09,-0.383C0.11,-0.421 0.139,-0.45 0.176,-0.471C0.212,-0.492 0.254,-0.503 0.302,-0.503C0.348,-0.503 0.389,-0.493 0.424,-0.473C0.459,-0.453 0.487,-0.425 0.507,-0.389C0.527,-0.352 0.537,-0.309 0.537,-0.26L0.537,-0.224L0.139,-0.224C0.14,-0.172 0.157,-0.13 0.189,-0.101C0.221,-0.071 0.261,-0.056 0.309,-0.056C0.351,-0.056 0.383,-0.066 0.406,-0.085C0.429,-0.104 0.446,-0.127 0.458,-0.154L0.526,-0.121C0.516,-0.1 0.503,-0.08 0.485,-0.059C0.467,-0.038 0.444,-0.021 0.416,-0.007C0.387,0.007 0.351,0.014 0.307,0.014ZM0.14,-0.289L0.457,-0.289C0.454,-0.334 0.439,-0.37 0.41,-0.395C0.382,-0.42 0.346,-0.433 0.302,-0.433C0.257,-0.433 0.221,-0.42 0.192,-0.395C0.164,-0.37 0.146,-0.334 0.14,-0.289Z" style="fill:rgb(33,37,41);fill-rule:nonzero;"/>
            </g>
            <g transform="matrix(36,0,0,36,884.647,584.297)">
                <path d="M0.28,0.014C0.219,0.014 0.168,0 0.127,-0.028C0.085,-0.056 0.06,-0.1 0.051,-0.161L0.126,-0.178C0.131,-0.146 0.141,-0.121 0.156,-0.103C0.171,-0.084 0.189,-0.071 0.21,-0.064C0.232,-0.056 0.255,-0.052 0.28,-0.052C0.316,-0.052 0.346,-0.059 0.367,-0.074C0.388,-0.088 0.399,-0.108 0.399,-0.133C0.399,-0.158 0.389,-0.176 0.369,-0.187C0.348,-0.197 0.321,-0.205 0.285,-0.212L0.244,-0.219C0.212,-0.224 0.184,-0.233 0.158,-0.244C0.132,-0.255 0.111,-0.271 0.096,-0.29C0.081,-0.309 0.073,-0.333 0.073,-0.363C0.073,-0.407 0.09,-0.441 0.124,-0.466C0.158,-0.491 0.203,-0.503 0.259,-0.503C0.314,-0.503 0.359,-0.49 0.394,-0.466C0.428,-0.441 0.45,-0.406 0.46,-0.36L0.386,-0.341C0.38,-0.376 0.365,-0.401 0.343,-0.415C0.32,-0.43 0.292,-0.437 0.259,-0.437C0.226,-0.437 0.2,-0.431 0.18,-0.418C0.161,-0.406 0.151,-0.388 0.151,-0.364C0.151,-0.341 0.161,-0.324 0.179,-0.313C0.197,-0.302 0.221,-0.293 0.252,-0.288L0.293,-0.281C0.328,-0.275 0.359,-0.267 0.387,-0.256C0.414,-0.246 0.436,-0.231 0.453,-0.212C0.469,-0.193 0.477,-0.167 0.477,-0.136C0.477,-0.088 0.459,-0.051 0.424,-0.025C0.388,0.001 0.34,0.014 0.28,0.014Z" style="fill:rgb(33,37,41);fill-rule:nonzero;"/>
            </g>
            <g transform="matrix(36,0,0,36,903.619,584.297)">
                <path d="M0.307,0.014C0.258,0.014 0.214,0.003 0.177,-0.018C0.14,-0.039 0.111,-0.068 0.09,-0.106C0.069,-0.144 0.059,-0.188 0.059,-0.238L0.059,-0.25C0.059,-0.301 0.069,-0.345 0.09,-0.383C0.11,-0.421 0.139,-0.45 0.176,-0.471C0.212,-0.492 0.254,-0.503 0.302,-0.503C0.348,-0.503 0.389,-0.493 0.424,-0.473C0.459,-0.453 0.487,-0.425 0.507,-0.389C0.527,-0.352 0.537,-0.309 0.537,-0.26L0.537,-0.224L0.139,-0.224C0.14,-0.172 0.157,-0.13 0.189,-0.101C0.221,-0.071 0.261,-0.056 0.309,-0.056C0.351,-0.056 0.383,-0.066 0.406,-0.085C0.429,-0.104 0.446,-0.127 0.458,-0.154L0.526,-0.121C0.516,-0.1 0.503,-0.08 0.485,-0.059C0.467,-0.038 0.444,-0.021 0.416,-0.007C0.387,0.007 0.351,0.014 0.307,0.014ZM0.14,-0.289L0.457,-0.289C0.454,-0.334 0.439,-0.37 0.41,-0.395C0.382,-0.42 0.346,-0.433 0.302,-0.433C0.257,-0.433 0.221,-0.42 0.192,-0.395C0.164,-0.37 0.146,-0.334 0.14,-0.289Z" style="fill:rgb(33,37,41);fill-rule:nonzero;"/>
            </g>
            <g transform="matrix(36,0,0,36,924.931,584.297)">
                <rect x="0.083" y="-0.7" width="0.079" height="0.7" style="fill:rgb(33,37,41);fill-rule:nonzero;"/>
            </g>
            <g transform="matrix(36,0,0,36,933.751,584.297)">
                <rect x="0.083" y="-0.7" width="0.079" height="0.7" style="fill:rgb(33,37,41);fill-rule:nonzero;"/>
            </g>
            <g transform="matrix(36,0,0,36,942.571,584.297)">
                <path d="M0.28,0.014C0.219,0.014 0.168,0 0.127,-0.028C0.085,-0.056 0.06,-0.1 0.051,-0.161L0.126,-0.178C0.131,-0.146 0.141,-0.121 0.156,-0.103C0.171,-0.084 0.189,-0.071 0.21,-0.064C0.232,-0.056 0.255,-0.052 0.28,-0.052C0.316,-0.052 0.346,-0.059 0.367,-0.074C0.388,-0.088 0.399,-0.108 0.399,-0.133C0.399,-0.158 0.389,-0.176 0.369,-0.187C0.348,-0.197 0.321,-0.205 0.285,-0.212L0.244,-0.219C0.212,-0.224 0.184,-0.233 0.158,-0.244C0.132,-0.255 0.111,-0.271 0.096,-0.29C0.081,-0.309 0.073,-0.333 0.073,-0.363C0.073,-0.407 0.09,-0.441 0.124,-0.466C0.158,-0.491 0.203,-0.503 0.259,-0.503C0.314,-0.503 0.359,-0.49 0.394,-0.466C0.428,-0.441 0.45,-0.406 0.46,-0.36L0.386,-0.341C0.38,-0.376 0.365,-0.401 0.343,-0.415C0.32,-0.43 0.292,-0.437 0.259,-0.437C0.226,-0.437 0.2,-0.431 0.18,-0.418C0.161,-0.406 0.151,-0.388 0.151,-0.364C0.151,-0.341 0.161,-0.324 0.179,-0.313C0.197,-0.302 0.221,-0.293 0.252,-0.288L0.293,-0.281C0.328,-0.275 0.359,-0.267 0.387,-0.256C0.414,-0.246 0.436,-0.231 0.453,-0.212C0.469,-0.193 0.477,-0.167 0.477,-0.136C0.477,-0.088 0.459,-0.051 0.424,-0.025C0.388,0.001 0.34,0.014 0.28,0.014Z" style="fill:rgb(33,37,41);fill-rule:nonzero;"/>
            </g>
            <g transform="matrix(36,0,0,36,961.543,584.297)">
                <path d="M0.308,0.014C0.26,0.014 0.218,0.004 0.18,-0.016C0.143,-0.037 0.113,-0.066 0.091,-0.104C0.07,-0.142 0.059,-0.187 0.059,-0.239L0.059,-0.25C0.059,-0.303 0.07,-0.348 0.091,-0.386C0.113,-0.423 0.143,-0.452 0.18,-0.473C0.218,-0.493 0.26,-0.503 0.308,-0.503C0.355,-0.503 0.395,-0.494 0.427,-0.477C0.46,-0.459 0.486,-0.436 0.505,-0.408C0.524,-0.379 0.537,-0.349 0.542,-0.316L0.465,-0.3C0.461,-0.324 0.454,-0.346 0.442,-0.366C0.429,-0.386 0.412,-0.402 0.39,-0.414C0.368,-0.426 0.341,-0.432 0.309,-0.432C0.276,-0.432 0.247,-0.425 0.222,-0.41C0.196,-0.395 0.175,-0.374 0.16,-0.347C0.145,-0.319 0.138,-0.287 0.138,-0.249L0.138,-0.24C0.138,-0.202 0.145,-0.17 0.16,-0.142C0.175,-0.115 0.196,-0.094 0.222,-0.079C0.247,-0.064 0.276,-0.057 0.309,-0.057C0.358,-0.057 0.395,-0.069 0.421,-0.095C0.446,-0.12 0.462,-0.152 0.468,-0.189L0.546,-0.172C0.539,-0.14 0.526,-0.109 0.506,-0.081C0.486,-0.052 0.46,-0.029 0.427,-0.012C0.395,0.005 0.355,0.014 0.308,0.014Z" style="fill:rgb(33,37,41);fill-rule:nonzero;"/>
            </g>
            <g transform="matrix(36,0,0,36,983.071,584.297)">
                <path d="M0.083,-0L0.083,-0.7L0.162,-0.7L0.162,-0.411L0.176,-0.411C0.183,-0.425 0.193,-0.439 0.207,-0.452C0.22,-0.466 0.238,-0.477 0.26,-0.485C0.281,-0.493 0.309,-0.498 0.342,-0.498C0.378,-0.498 0.411,-0.49 0.44,-0.474C0.47,-0.459 0.493,-0.436 0.51,-0.406C0.527,-0.376 0.536,-0.34 0.536,-0.296L0.536,-0L0.457,-0L0.457,-0.29C0.457,-0.339 0.445,-0.374 0.42,-0.396C0.396,-0.418 0.363,-0.429 0.322,-0.429C0.275,-0.429 0.237,-0.413 0.207,-0.383C0.177,-0.352 0.162,-0.306 0.162,-0.246L0.162,-0L0.083,-0Z" style="fill:rgb(33,37,41);fill-rule:nonzero;"/>
            </g>
            <g transform="matrix(36,0,0,36,1005.14,584.297)">
                <path d="M0.233,0.014C0.199,0.014 0.168,0.008 0.14,-0.004C0.112,-0.016 0.09,-0.033 0.074,-0.056C0.058,-0.079 0.05,-0.107 0.05,-0.139C0.05,-0.172 0.058,-0.2 0.074,-0.222C0.09,-0.243 0.112,-0.26 0.14,-0.271C0.168,-0.282 0.199,-0.287 0.234,-0.287L0.399,-0.287L0.399,-0.323C0.399,-0.358 0.389,-0.385 0.369,-0.405C0.349,-0.425 0.318,-0.435 0.278,-0.435C0.239,-0.435 0.208,-0.425 0.186,-0.406C0.164,-0.387 0.149,-0.362 0.141,-0.33L0.067,-0.354C0.075,-0.381 0.087,-0.406 0.105,-0.429C0.122,-0.451 0.145,-0.469 0.174,-0.483C0.203,-0.496 0.238,-0.503 0.279,-0.503C0.341,-0.503 0.39,-0.487 0.425,-0.455C0.46,-0.422 0.477,-0.377 0.477,-0.318L0.477,-0.097C0.477,-0.077 0.487,-0.067 0.505,-0.067L0.55,-0.067L0.55,-0L0.481,-0C0.459,-0 0.441,-0.006 0.428,-0.018C0.415,-0.031 0.408,-0.047 0.408,-0.068L0.408,-0.073L0.396,-0.073C0.389,-0.061 0.379,-0.047 0.367,-0.034C0.354,-0.02 0.337,-0.009 0.316,0C0.295,0.009 0.267,0.014 0.233,0.014ZM0.242,-0.054C0.289,-0.054 0.327,-0.068 0.356,-0.095C0.385,-0.123 0.399,-0.162 0.399,-0.212L0.399,-0.223L0.237,-0.223C0.205,-0.223 0.18,-0.216 0.16,-0.203C0.139,-0.189 0.129,-0.169 0.129,-0.141C0.129,-0.114 0.14,-0.092 0.161,-0.077C0.181,-0.062 0.209,-0.054 0.242,-0.054Z" style="fill:rgb(33,37,41);fill-rule:nonzero;"/>
            </g>
            <g transform="matrix(36,0,0,36,1024.76,584.297)">
                <path d="M0.179,-0L0.179,-0.42L0.029,-0.42L0.029,-0.489L0.179,-0.489L0.179,-0.614C0.179,-0.64 0.187,-0.662 0.202,-0.677C0.217,-0.692 0.238,-0.7 0.266,-0.7L0.389,-0.7L0.389,-0.632L0.288,-0.632C0.268,-0.632 0.258,-0.622 0.258,-0.602L0.258,-0.489L0.412,-0.489L0.412,-0.42L0.258,-0.42L0.258,-0L0.179,-0Z" style="fill:rgb(33,37,41);fill-rule:nonzero;"/>
            </g>
            <g transform="matrix(36,0,0,36,1039.95,584.297)">
                <path d="M0.263,-0C0.235,-0 0.213,-0.008 0.198,-0.023C0.183,-0.038 0.176,-0.06 0.176,-0.086L0.176,-0.42L0.029,-0.42L0.029,-0.489L0.176,-0.489L0.176,-0.663L0.255,-0.663L0.255,-0.489L0.415,-0.489L0.415,-0.42L0.255,-0.42L0.255,-0.099C0.255,-0.079 0.265,-0.069 0.284,-0.069L0.393,-0.069L0.393,-0L0.263,-0Z" style="fill:rgb(33,37,41);fill-rule:nonzero;"/>
            </g>
            <g transform="matrix(36,0,0,36,1056.51,584.297)">
            </g>
        </g>
        <g transform="matrix(1.45536,0,0,1.45536,-516.87,-92.6218)">
            <g transform="matrix(64,0,0,64,739.416,438.302)">
                <rect x="0.073" y="-0.7" width="0.108" height="0.7" style="fill:rgb(0,197,194);fill-rule:nonzero;"/>
            </g>
            <g transform="matrix(64,0,0,64,755.672,438.302)">
                <path d="M0.073,-0L0.073,-0.7L0.351,-0.7C0.394,-0.7 0.432,-0.692 0.466,-0.675C0.499,-0.658 0.525,-0.634 0.544,-0.603C0.564,-0.571 0.573,-0.534 0.573,-0.491L0.573,-0.478C0.573,-0.435 0.563,-0.398 0.544,-0.366C0.524,-0.335 0.497,-0.311 0.464,-0.294C0.431,-0.277 0.393,-0.269 0.351,-0.269L0.181,-0.269L0.181,-0L0.073,-0ZM0.181,-0.367L0.34,-0.367C0.378,-0.367 0.408,-0.377 0.431,-0.397C0.454,-0.417 0.465,-0.444 0.465,-0.479L0.465,-0.489C0.465,-0.525 0.454,-0.552 0.431,-0.572C0.409,-0.592 0.378,-0.602 0.34,-0.602L0.181,-0.602L0.181,-0.367Z" style="fill:rgb(0,197,194);fill-rule:nonzero;"/>
            </g>
            <g transform="matrix(64,0,0,64,794.264,438.302)">
                <path d="M0.19,-0L0.024,-0.493L0.133,-0.493L0.264,-0.076L0.28,-0.076L0.411,-0.493L0.52,-0.493L0.354,-0L0.19,-0Z" style="fill:rgb(0,197,194);fill-rule:nonzero;"/>
            </g>
            <g transform="matrix(64,0,0,64,829.08,438.302)">
                <path d="M0.027,-0L0.242,-0.353L0.03,-0.7L0.154,-0.7L0.312,-0.43L0.328,-0.43L0.487,-0.7L0.611,-0.7L0.399,-0.353L0.614,-0L0.49,-0L0.328,-0.277L0.312,-0.277L0.151,-0L0.027,-0Z" style="fill:rgb(0,197,194);fill-rule:nonzero;"/>
            </g>
            <g transform="matrix(64,0,0,64,870.104,438.302)">
            </g>
        </g>
    </g>
</svg>
